<svg width="78" height="78" viewBox="0 0 78 78" fill="none" xmlns="http://www.w3.org/2000/svg">
<path d="M48.25 29.25V29.75H48.75H62.1105C64.376 29.75 65.5102 32.4862 63.905 34.0914L63.9049 34.0915L40.7336 57.2781C39.7862 58.2254 38.229 58.2254 37.2817 57.2781L37.2816 57.278L14.0797 34.0914C12.4746 32.4862 13.6088 29.75 15.8742 29.75H29.25H29.75V29.25V3.65625C29.75 1.90622 31.1562 0.5 32.9062 0.5H45.0938C46.8438 0.5 48.25 1.90622 48.25 3.65625V29.25ZM77.5 57.2812V74.3438C77.5 76.0938 76.0938 77.5 74.3438 77.5H3.65625C1.90622 77.5 0.5 76.0938 0.5 74.3438V57.2812C0.5 55.5312 1.90622 54.125 3.65625 54.125H25.798L33.1164 61.4434C36.3737 64.7008 41.6263 64.7008 44.8836 61.4434L52.202 54.125H74.3438C76.0938 54.125 77.5 55.5312 77.5 57.2812ZM59.6094 70.6875C59.6094 68.7356 58.0144 67.1406 56.0625 67.1406C54.1106 67.1406 52.5156 68.7356 52.5156 70.6875C52.5156 72.6394 54.1106 74.2344 56.0625 74.2344C58.0144 74.2344 59.6094 72.6394 59.6094 70.6875ZM69.3594 70.6875C69.3594 68.7356 67.7644 67.1406 65.8125 67.1406C63.8606 67.1406 62.2656 68.7356 62.2656 70.6875C62.2656 72.6394 63.8606 74.2344 65.8125 74.2344C67.7644 74.2344 69.3594 72.6394 69.3594 70.6875Z" fill="white" stroke="#96D6C6"/>
</svg>
