<svg width="31" height="31" viewBox="0 0 31 31" fill="none" xmlns="http://www.w3.org/2000/svg">
<path fill-rule="evenodd" clip-rule="evenodd" d="M15.3794 0.650391C6.88228 0.650391 0 7.47611 0 15.9034C0 22.6528 4.40235 28.3536 10.5157 30.3747C11.2846 30.5081 11.573 30.0505 11.573 29.6502C11.573 29.2879 11.5538 28.0867 11.5538 26.8093C7.6897 27.5147 6.69004 25.875 6.38245 25.0171C6.20943 24.5785 5.45968 23.2248 4.80606 22.8626C4.26778 22.5766 3.49881 21.8711 4.78684 21.8521C5.99796 21.833 6.86305 22.9579 7.15142 23.4155C8.53556 25.7225 10.7464 25.0743 11.6307 24.6739C11.7652 23.6824 12.1689 23.0151 12.6111 22.6338C9.18919 22.2524 5.61348 20.9369 5.61348 15.1026C5.61348 13.4438 6.20943 12.0711 7.18987 11.0034C7.03607 10.622 6.49779 9.05861 7.34366 6.96132C7.34366 6.96132 8.63168 6.56093 11.573 8.52475C12.8033 8.18156 14.1106 8.00996 15.4178 8.00996C16.7251 8.00996 18.0323 8.18156 19.2627 8.52475C22.204 6.54186 23.492 6.96132 23.492 6.96132C24.3379 9.05861 23.7996 10.622 23.6458 11.0034C24.6263 12.0711 25.2222 13.4248 25.2222 15.1026C25.2222 20.9559 21.6273 22.2524 18.2054 22.6338C18.7629 23.1104 19.2435 24.0256 19.2435 25.4556C19.2435 27.4957 19.2242 29.1354 19.2242 29.6502C19.2242 30.0505 19.5126 30.5272 20.2816 30.3747C23.3346 29.3524 25.9876 27.4063 27.867 24.8103C29.7465 22.2144 30.7579 19.0993 30.7588 15.9034C30.7588 7.47611 23.8765 0.650391 15.3794 0.650391Z" fill="#FAFAFA"/>
</svg>
