<svg width="30" height="31" viewBox="0 0 30 31" fill="none" xmlns="http://www.w3.org/2000/svg">
<path fill-rule="evenodd" clip-rule="evenodd" d="M3.7099e-07 3.13616C3.7099e-07 2.47689 0.264063 1.84463 0.734097 1.37846C1.20413 0.912286 1.84163 0.650394 2.50636 0.650394H27.4909C27.8203 0.64986 28.1466 0.713773 28.4511 0.838472C28.7556 0.963171 29.0323 1.14621 29.2653 1.3771C29.4984 1.608 29.6833 1.88222 29.8093 2.18406C29.9354 2.4859 30.0002 2.80944 30 3.13616V27.9153C30.0004 28.2421 29.9357 28.5658 29.8099 28.8677C29.684 29.1697 29.4993 29.4441 29.2664 29.6753C29.0335 29.9064 28.7569 30.0897 28.4525 30.2147C28.148 30.3397 27.8218 30.404 27.4923 30.4038H2.50636C2.17711 30.4038 1.85108 30.3395 1.5469 30.2145C1.24273 30.0895 0.96637 29.9062 0.733615 29.6753C0.50086 29.4443 0.316271 29.1701 0.190394 28.8684C0.0645181 28.5666 -0.000178767 28.2432 3.7099e-07 27.9167V3.13616ZM11.8745 11.9946H15.9368V14.0178C16.5232 12.8547 18.0232 11.8079 20.2773 11.8079C24.5986 11.8079 25.6227 14.1246 25.6227 18.3753V26.2491H21.2495V19.3437C21.2495 16.9228 20.6632 15.5569 19.1741 15.5569C17.1082 15.5569 16.2491 17.0296 16.2491 19.3437V26.2491H11.8745V11.9946ZM4.37455 26.0639H8.74909V11.8079H4.37455V26.0625V26.0639ZM9.375 7.15828C9.38325 7.52975 9.3166 7.89912 9.17896 8.2447C9.04133 8.59028 8.83548 8.90512 8.5735 9.17073C8.31152 9.43635 7.99868 9.64738 7.65335 9.79146C7.30802 9.93554 6.93714 10.0098 6.5625 10.0098C6.18786 10.0098 5.81698 9.93554 5.47165 9.79146C5.12632 9.64738 4.81348 9.43635 4.5515 9.17073C4.28952 8.90512 4.08367 8.59028 3.94604 8.2447C3.8084 7.89912 3.74175 7.52975 3.75 7.15828C3.76619 6.42912 4.06962 5.73524 4.5953 5.22523C5.12098 4.71523 5.82712 4.42964 6.5625 4.42964C7.29788 4.42964 8.00402 4.71523 8.5297 5.22523C9.05538 5.73524 9.35881 6.42912 9.375 7.15828Z" fill="#FAFAFA"/>
</svg>
