<svg width="30" height="31" viewBox="0 0 30 31" fill="none" xmlns="http://www.w3.org/2000/svg">
<path d="M14.996 10.5661C12.2417 10.5661 9.99393 12.7954 9.99393 15.5271C9.99393 18.2588 12.2417 20.4881 14.996 20.4881C17.7503 20.4881 19.998 18.2588 19.998 15.5271C19.998 12.7954 17.7503 10.5661 14.996 10.5661ZM29.9983 15.5271C29.9983 13.4727 30.0171 11.437 29.9008 9.38631C29.7844 7.00443 29.2366 4.8905 27.4804 3.14875C25.7205 1.40328 23.5929 0.863634 21.1913 0.748262C19.1199 0.632889 17.0673 0.651498 14.9997 0.651498C12.9284 0.651498 10.8758 0.632889 8.80815 0.748262C6.40658 0.863634 4.27517 1.407 2.51902 3.14875C0.759114 4.89423 0.215007 7.00443 0.0986802 9.38631C-0.0176462 11.4407 0.00111615 13.4764 0.00111615 15.5271C0.00111615 17.5778 -0.0176462 19.6172 0.0986802 21.6679C0.215007 24.0498 0.762867 26.1637 2.51902 27.9054C4.27893 29.6509 6.40658 30.1906 8.80815 30.3059C10.8795 30.4213 12.9321 30.4027 14.9997 30.4027C17.0711 30.4027 19.1237 30.4213 21.1913 30.3059C23.5929 30.1906 25.7243 29.6472 27.4804 27.9054C29.2403 26.16 29.7844 24.0498 29.9008 21.6679C30.0208 19.6172 29.9983 17.5815 29.9983 15.5271ZM14.996 23.1603C10.7369 23.1603 7.29966 19.7512 7.29966 15.5271C7.29966 11.303 10.7369 7.89391 14.996 7.89391C19.255 7.89391 22.6923 11.303 22.6923 15.5271C22.6923 19.7512 19.255 23.1603 14.996 23.1603ZM23.0075 9.36398C22.0131 9.36398 21.2101 8.56754 21.2101 7.58129C21.2101 6.59504 22.0131 5.7986 23.0075 5.7986C24.0019 5.7986 24.8049 6.59504 24.8049 7.58129C24.8052 7.81548 24.7589 8.04742 24.6687 8.26384C24.5785 8.48026 24.4461 8.6769 24.2791 8.84249C24.1122 9.00809 23.9139 9.13939 23.6957 9.22888C23.4775 9.31836 23.2436 9.36427 23.0075 9.36398Z" fill="#FAFAFA"/>
</svg>
