<svg width="37" height="31" viewBox="0 0 37 31" fill="none" xmlns="http://www.w3.org/2000/svg">
<path d="M36.9033 4.17969C35.5462 4.77609 34.0883 5.17907 32.5557 5.36122C34.1371 4.42275 35.3202 2.94572 35.8842 1.20572C34.3985 2.08097 32.7724 2.69705 31.0767 3.02718C29.9364 1.81964 28.426 1.01927 26.78 0.750317C25.1341 0.481367 23.4446 0.758888 21.974 1.53979C20.5033 2.3207 19.3338 3.5613 18.6469 5.06898C17.96 6.57667 17.7943 8.26708 18.1753 9.87778C15.1648 9.72787 12.2198 8.95182 9.53124 7.6C6.84272 6.24819 4.47084 4.35081 2.56954 2.03102C1.91944 3.14323 1.54563 4.43276 1.54563 5.8061C1.5449 7.04243 1.85188 8.25981 2.43932 9.35025C3.02677 10.4407 3.87652 11.3705 4.91318 12.0571C3.71093 12.0191 2.53521 11.6969 1.48387 11.1173V11.214C1.48375 12.948 2.08852 14.6287 3.19557 15.9708C4.30262 17.3129 5.84376 18.2338 7.55748 18.5772C6.4422 18.8766 5.27291 18.9207 4.13792 18.7062C4.62144 20.1982 5.56327 21.5029 6.83158 22.4376C8.09989 23.3724 9.63118 23.8904 11.2111 23.9191C8.52912 26.0072 5.21692 27.1398 1.80729 27.1348C1.20332 27.135 0.599847 27.1 0 27.0301C3.46096 29.2371 7.48977 30.4083 11.6044 30.4038C25.5329 30.4038 33.1473 18.9625 33.1473 9.03959C33.1473 8.71721 33.1391 8.3916 33.1245 8.06922C34.6056 7.00693 35.8841 5.69149 36.9 4.18453L36.9033 4.17969Z" fill="#FAFAFA"/>
</svg>
