<?xml version="1.0" encoding="UTF-8"?>
<svg xmlns="http://www.w3.org/2000/svg" xmlns:xlink="http://www.w3.org/1999/xlink" viewBox="0 0 500 500" width="500px" height="500px">
<g id="surface755853">
<path style=" stroke:none;fill-rule:nonzero;fill:rgb(100%,100%,100%);fill-opacity:1;" d="M 104.167969 62.5 C 81.21875 62.5 62.5 81.21875 62.5 104.167969 L 62.5 395.832031 C 62.5 418.78125 81.21875 437.5 104.167969 437.5 L 395.832031 437.5 C 418.78125 437.5 437.5 418.78125 437.5 395.832031 L 437.5 104.167969 C 437.5 81.21875 418.78125 62.5 395.832031 62.5 Z M 322.917969 156.25 C 333.332031 156.25 341.796875 164.714844 341.796875 175.128906 C 341.796875 185.546875 333.332031 194.011719 322.917969 194.011719 C 312.5 194.011719 304.035156 185.546875 304.035156 175.128906 C 304.035156 164.714844 312.5 156.25 322.917969 156.25 Z M 201.824219 164.714844 L 235.675781 164.714844 L 291.667969 341.796875 L 251.953125 341.796875 L 241.535156 305.988281 L 194.011719 305.988281 L 183.59375 341.796875 L 145.832031 341.796875 Z M 305.988281 210.285156 L 341.796875 210.285156 L 341.796875 341.796875 L 305.988281 341.796875 Z M 218.75 212.238281 L 201.824219 274.738281 L 235.675781 274.738281 Z M 218.75 212.238281 "/>
</g>
</svg>
