<?xml version="1.0" encoding="UTF-8"?>
<svg xmlns="http://www.w3.org/2000/svg" xmlns:xlink="http://www.w3.org/1999/xlink" viewBox="0 0 240 240" width="240px" height="240px">
<g id="surface761733">
<path style=" stroke:none;fill-rule:nonzero;fill:rgb(100%,100%,100%);fill-opacity:1;" d="M 89.964844 11.25 C 88.988281 11.265625 88.058594 11.660156 87.371094 12.347656 L 38.597656 61.121094 C 37.132812 62.585938 37.132812 64.957031 38.597656 66.421875 L 64.828125 92.652344 C 68.355469 96.179688 71.652344 100.371094 73.269531 105.636719 C 74.890625 110.90625 74.992188 117.375 71.5 126.109375 C 70.835938 127.761719 71.429688 129.65625 72.917969 130.636719 C 74.40625 131.617188 76.378906 131.414062 77.636719 130.152344 L 141.386719 66.363281 C 142.847656 64.898438 142.84375 62.523438 141.378906 61.0625 L 92.671875 12.347656 C 91.957031 11.628906 90.976562 11.234375 89.964844 11.25 Z M 90.023438 20.300781 L 133.425781 63.714844 L 81.621094 115.546875 C 81.953125 111.097656 81.546875 107.023438 80.441406 103.425781 C 78.3125 96.503906 74.101562 91.320312 70.128906 87.347656 L 46.554688 63.773438 Z M 149.917969 71.25 C 148.941406 71.261719 148.011719 71.65625 147.320312 72.347656 L 125.074219 94.59375 C 125.074219 94.59375 125.070312 94.597656 125.066406 94.597656 C 124.875 94.757812 124.699219 94.933594 124.539062 95.125 C 124.539062 95.128906 124.535156 95.132812 124.535156 95.132812 L 98.832031 120.84375 C 98.828125 120.84375 98.824219 120.847656 98.816406 120.847656 C 98.625 121.007812 98.449219 121.183594 98.289062 121.375 C 98.289062 121.382812 98.285156 121.386719 98.285156 121.390625 L 72.589844 147.085938 C 72.582031 147.089844 72.574219 147.09375 72.566406 147.097656 C 72.375 147.257812 72.199219 147.433594 72.039062 147.625 C 72.035156 147.632812 72.03125 147.640625 72.027344 147.648438 L 46.039062 173.636719 C 44.574219 175.101562 44.574219 177.472656 46.039062 178.9375 L 94.753906 227.652344 C 96.21875 229.113281 98.589844 229.113281 100.054688 227.652344 L 122.015625 205.691406 C 122.515625 205.386719 122.9375 204.964844 123.246094 204.460938 L 148.265625 179.441406 C 148.765625 179.136719 149.1875 178.714844 149.496094 178.210938 L 174.515625 153.191406 C 175.015625 152.886719 175.4375 152.464844 175.746094 151.960938 L 201.34375 126.363281 C 202.808594 124.898438 202.808594 122.527344 201.34375 121.0625 L 175.613281 95.339844 C 175.609375 95.335938 175.609375 95.328125 175.605469 95.324219 C 175.363281 94.988281 175.066406 94.691406 174.726562 94.453125 L 152.621094 72.347656 C 151.90625 71.632812 150.933594 71.238281 149.917969 71.25 Z M 149.972656 80.300781 L 163.417969 93.75 L 136.523438 93.75 Z M 129.023438 101.25 L 170.917969 101.25 L 189.667969 120 L 110.273438 120 Z M 102.773438 127.5 L 189.59375 127.5 L 170.84375 146.25 L 84.03125 146.25 Z M 210.964844 132.457031 C 210.007812 132.457031 209.046875 132.824219 208.316406 133.558594 C 206.847656 135.023438 206.847656 137.394531 208.316406 138.859375 L 213.617188 144.164062 C 214.347656 144.894531 215.308594 145.261719 216.269531 145.261719 C 217.230469 145.261719 218.191406 144.898438 218.921875 144.164062 C 220.386719 142.695312 220.386719 140.324219 218.921875 138.859375 L 213.617188 133.558594 C 212.886719 132.824219 211.925781 132.457031 210.964844 132.457031 Z M 196.765625 146.667969 C 195.804688 146.667969 194.847656 147.03125 194.113281 147.765625 C 192.648438 149.230469 192.648438 151.601562 194.113281 153.070312 L 199.417969 158.371094 C 200.148438 159.101562 201.109375 159.46875 202.066406 159.46875 C 203.027344 159.46875 203.988281 159.105469 204.71875 158.371094 C 206.183594 156.90625 206.183594 154.535156 204.71875 153.070312 L 199.417969 147.765625 C 198.683594 147.03125 197.722656 146.667969 196.765625 146.667969 Z M 76.53125 153.75 L 163.34375 153.75 L 144.601562 172.5 L 57.78125 172.5 Z M 182.554688 160.867188 C 181.597656 160.867188 180.636719 161.234375 179.90625 161.96875 C 178.4375 163.433594 178.4375 165.804688 179.90625 167.269531 L 185.207031 172.574219 C 185.9375 173.304688 186.898438 173.671875 187.859375 173.671875 C 188.820312 173.671875 189.773438 173.304688 190.511719 172.574219 C 191.976562 171.105469 191.976562 168.738281 190.511719 167.269531 L 185.207031 161.96875 C 184.472656 161.234375 183.515625 160.867188 182.554688 160.867188 Z M 168.347656 175.078125 C 167.386719 175.078125 166.425781 175.445312 165.695312 176.175781 C 164.230469 177.644531 164.230469 180.015625 165.695312 181.480469 L 171.003906 186.78125 C 171.738281 187.511719 172.695312 187.878906 173.65625 187.878906 C 174.617188 187.878906 175.578125 187.511719 176.308594 186.78125 C 177.773438 185.316406 177.773438 182.941406 176.308594 181.480469 L 171 176.175781 C 170.265625 175.445312 169.308594 175.078125 168.347656 175.078125 Z M 57.707031 180 L 137.101562 180 L 118.351562 198.75 L 76.457031 198.75 Z M 154.144531 189.28125 C 153.1875 189.28125 152.226562 189.644531 151.492188 190.378906 C 150.027344 191.84375 150.027344 194.214844 151.492188 195.679688 L 156.796875 200.984375 C 157.527344 201.714844 158.488281 202.082031 159.449219 202.082031 C 160.410156 202.082031 161.367188 201.714844 162.101562 200.984375 C 163.566406 199.519531 163.566406 197.148438 162.101562 195.679688 L 156.796875 190.378906 C 156.0625 189.644531 155.105469 189.28125 154.144531 189.28125 Z M 139.9375 203.488281 C 138.976562 203.488281 138.015625 203.855469 137.285156 204.585938 C 135.820312 206.054688 135.820312 208.425781 137.285156 209.890625 L 142.59375 215.191406 C 143.328125 215.925781 144.285156 216.292969 145.246094 216.292969 C 146.207031 216.292969 147.171875 215.925781 147.898438 215.191406 C 149.363281 213.726562 149.363281 211.351562 147.898438 209.890625 L 142.589844 204.585938 C 141.855469 203.855469 140.894531 203.488281 139.9375 203.488281 Z M 83.957031 206.25 L 110.851562 206.25 L 97.40625 219.699219 Z M 83.957031 206.25 "/>
</g>
</svg>
