<?xml version="1.0" encoding="UTF-8"?>
<svg xmlns="http://www.w3.org/2000/svg" xmlns:xlink="http://www.w3.org/1999/xlink" viewBox="0 0 500 500" width="500px" height="500px">
<g id="surface746344">
<path style=" stroke:none;fill-rule:nonzero;fill:rgb(100%,100%,100%);fill-opacity:1;" d="M 452.734375 23.242188 C 450.859375 21.171875 448.164062 20 445.351562 20 L 54.648438 20 C 51.835938 20 49.140625 21.171875 47.265625 23.242188 C 45.351562 25.3125 44.414062 28.085938 44.6875 30.898438 L 79.882812 425.15625 C 80.234375 429.296875 83.125 432.734375 87.109375 433.90625 L 247.226562 479.609375 C 248.085938 479.882812 249.023438 480 249.960938 480 C 250.898438 480 251.796875 479.882812 252.695312 479.609375 L 412.929688 433.90625 C 416.914062 432.734375 419.765625 429.296875 420.15625 425.15625 L 455.3125 30.898438 C 455.585938 28.085938 454.648438 25.3125 452.734375 23.242188 Z M 368.476562 159.179688 L 180.351562 159.179688 L 184.84375 210.078125 L 363.945312 210.078125 L 350.507812 360.507812 L 249.921875 390.898438 L 248.945312 390.585938 L 149.53125 360.46875 L 144.101562 299.179688 L 192.8125 299.179688 L 194.921875 322.96875 L 250.507812 334.609375 L 305.078125 322.96875 L 310.898438 258.59375 L 140.46875 258.59375 L 127.226562 110.546875 L 372.8125 110.546875 Z M 368.476562 159.179688 "/>
</g>
</svg>
