<?xml version="1.0" encoding="UTF-8"?>
<svg xmlns="http://www.w3.org/2000/svg" xmlns:xlink="http://www.w3.org/1999/xlink" viewBox="0 0 500 500" width="500px" height="500px">
<g id="surface746519">
<path style=" stroke:none;fill-rule:nonzero;fill:rgb(100%,100%,100%);fill-opacity:1;" d="M 281.875 0 C 309.375 63.632812 183.28125 102.929688 171.5625 155.9375 C 160.820312 204.648438 246.484375 261.25 246.5625 261.25 C 233.554688 241.09375 223.984375 224.492188 210.9375 193.125 C 188.867188 140.078125 345.351562 92.070312 281.875 0 Z M 365.625 88.125 C 365.625 88.125 255 95.234375 249.375 165.9375 C 246.875 197.421875 278.476562 213.984375 279.375 236.875 C 280.117188 255.585938 260.625 271.25 260.625 271.25 C 260.625 271.25 296.09375 264.492188 307.1875 235.9375 C 319.492188 204.257812 283.203125 182.851562 286.875 157.5 C 290.390625 133.242188 365.625 88.125 365.625 88.125 Z M 191.875 251.5625 C 191.875 251.5625 90.625 250.117188 90.625 278.75 C 90.625 308.671875 223.164062 310.898438 317.8125 292.5 C 317.8125 292.5 342.96875 275.195312 349.6875 268.75 C 287.65625 281.40625 146.25 282.8125 146.25 271.875 C 146.25 261.796875 191.875 251.5625 191.875 251.5625 Z M 386.5625 251.5625 C 376.640625 252.34375 365.9375 256.171875 356.25 263.125 C 379.0625 258.203125 398.4375 272.34375 398.4375 288.4375 C 398.4375 324.6875 345.9375 358.75 345.9375 358.75 C 345.9375 358.75 427.1875 349.53125 427.1875 290 C 427.1875 262.96875 408.398438 249.84375 386.5625 251.5625 Z M 167.5 307.1875 C 151.953125 307.1875 128.75 319.375 128.75 330.9375 C 128.75 354.179688 245.625 372.070312 332.1875 338.125 L 302.1875 319.6875 C 243.515625 338.476562 135.46875 332.34375 167.5 307.1875 Z M 181.875 359.375 C 160.585938 359.375 146.5625 372.226562 146.5625 381.875 C 146.5625 411.71875 273.710938 414.726562 324.0625 384.375 L 292.1875 364.0625 C 254.570312 379.960938 160.15625 382.382812 181.875 359.375 Z M 110.9375 386.25 C 76.25 385.546875 53.75 401.132812 53.75 414.0625 C 53.75 482.8125 408.75 479.648438 408.75 409.375 C 408.75 397.695312 395.273438 392.03125 390.3125 389.375 C 419.335938 456.5625 99.6875 451.210938 99.6875 411.5625 C 99.6875 402.539062 123.203125 393.90625 145 398.125 L 126.5625 387.5 C 121.132812 386.679688 115.898438 386.367188 110.9375 386.25 Z M 446.25 432.5 C 392.265625 483.671875 255.46875 502.226562 117.8125 470.625 C 255.429688 526.953125 445.585938 495.351562 446.25 432.5 Z M 446.25 432.5 "/>
</g>
</svg>
