<?xml version="1.0" encoding="UTF-8"?>
<svg xmlns="http://www.w3.org/2000/svg" xmlns:xlink="http://www.w3.org/1999/xlink" viewBox="0 0 208 208" width="208px" height="208px">
<g id="surface754476">
<path style=" stroke:none;fill-rule:nonzero;fill:rgb(100%,100%,100%);fill-opacity:1;" d="M 92.375 75.75 C 93.0625 77.59375 93.40625 79.875 93.40625 82.5625 C 93.40625 85.78125 93.03125 88.4375 92.3125 90.5 C 91.59375 92.5 90.625 94.09375 89.4375 95.21875 C 88.21875 96.34375 86.84375 97.15625 85.28125 97.59375 C 83.6875 98.09375 81.96875 98.34375 80.1875 98.34375 C 79.71875 98.34375 78.78125 98.28125 77.40625 98.15625 C 76.5 98.0625 75.875 97.96875 75.4375 97.90625 L 75.4375 68.90625 C 76.9375 68.59375 78.8125 68.46875 80.96875 68.46875 C 82.625 68.46875 84.25 68.6875 85.78125 69.1875 C 87.25 69.65625 88.5625 70.40625 89.6875 71.4375 C 90.8125 72.5 91.71875 73.9375 92.375 75.75 Z M 208 39 L 208 169 C 208 190.53125 190.53125 208 169 208 L 39 208 C 17.46875 208 0 190.53125 0 169 L 0 39 C 0 17.46875 17.46875 0 39 0 L 169 0 C 190.53125 0 208 17.46875 208 39 Z M 109.84375 97.40625 C 111.46875 93.375 112.28125 88.4375 112.28125 82.6875 C 112.28125 76.34375 111.3125 71.09375 109.375 67.09375 C 107.4375 63.09375 104.875 59.90625 101.75 57.6875 C 98.65625 55.46875 95.09375 53.96875 91.1875 53.21875 C 83.75 51.8125 76.03125 51.875 68.3125 52.71875 C 64.65625 53.09375 61.21875 53.625 58.09375 54.3125 C 57.625 54.4375 57.3125 54.84375 57.3125 55.28125 L 57.3125 144 C 57.3125 144.5625 57.75 145 58.3125 145 L 74.4375 145 C 74.96875 145 75.4375 144.5625 75.4375 144 L 75.4375 114.3125 C 75.625 114.34375 75.84375 114.375 76.0625 114.40625 C 76.875 114.5 77.71875 114.5625 78.59375 114.59375 C 79.46875 114.625 80.3125 114.65625 81.09375 114.65625 L 82.75 114.65625 C 86.5 114.65625 90.21875 114.09375 93.75 112.9375 C 97.34375 111.8125 100.53125 109.90625 103.28125 107.34375 C 106.03125 104.78125 108.21875 101.4375 109.84375 97.40625 Z M 153.875 126.09375 C 153.875 122.4375 153.28125 119.3125 152.0625 116.8125 C 150.84375 114.3125 149.28125 112.1875 147.4375 110.4375 C 145.5625 108.71875 143.59375 107.28125 141.53125 106.125 C 139.53125 105.03125 137.625 103.96875 135.84375 102.9375 C 134.125 101.96875 132.6875 100.9375 131.625 99.9375 C 130.6875 99.0625 130.21875 98 130.21875 96.65625 C 130.21875 94.6875 130.8125 92.40625 135.46875 92.40625 C 137.59375 92.40625 139.78125 92.71875 142 93.3125 C 144.21875 93.9375 146.15625 94.59375 147.75 95.25 C 148.03125 95.375 148.3125 95.375 148.5625 95.25 C 148.84375 95.125 149.03125 94.90625 149.09375 94.625 L 152.6875 82.84375 C 152.8125 82.40625 152.65625 81.9375 152.25 81.71875 C 150.21875 80.46875 147.4375 79.40625 144.03125 78.59375 C 140.65625 77.75 137 77.34375 133.1875 77.34375 C 126.625 77.34375 121.5625 79.0625 118.125 82.5 C 114.71875 85.90625 112.96875 90.8125 112.96875 97.03125 C 112.96875 100.65625 113.59375 103.75 114.8125 106.1875 C 116 108.59375 117.5625 110.65625 119.4375 112.375 C 121.3125 114.03125 123.28125 115.46875 125.3125 116.59375 C 127.3125 117.6875 129.21875 118.78125 131 119.84375 C 132.71875 120.84375 134.125 121.96875 135.1875 123.09375 C 136.1875 124.15625 136.65625 125.4375 136.65625 126.96875 C 136.65625 128.59375 136.15625 129.75 135.15625 130.4375 C 134.0625 131.21875 132.59375 131.59375 130.875 131.59375 C 128.40625 131.59375 126.03125 131.21875 123.8125 130.5 C 121.5625 129.75 119.53125 128.875 117.78125 127.90625 C 117.53125 127.75 117.21875 127.71875 116.9375 127.8125 C 116.65625 127.9375 116.4375 128.15625 116.34375 128.4375 L 112.125 140.71875 C 111.96875 141.15625 112.15625 141.625 112.53125 141.875 C 114.65625 143.3125 117.5 144.46875 120.96875 145.34375 C 124.40625 146.21875 127.96875 146.65625 131.5 146.65625 C 138.84375 146.65625 144.46875 144.75 148.21875 141 C 151.96875 137.21875 153.875 132.21875 153.875 126.09375 Z M 153.875 126.09375 "/>
</g>
</svg>
